<?xml version="1.0"?>
<!DOCTYPE svg PUBLIC "-//W3C//DTD SVG 1.1//EN" "http://www.w3.org/Graphics/SVG/1.1/DTD/svg11.dtd">
<svg width="42" height="22" xmlns="http://www.w3.org/2000/svg" xmlns:svg="http://www.w3.org/2000/svg" viewBox="0 0 42 22">
 <g id="tip">
  <path id="t" d="m12.7,12.4c-0.099999,2.5 -0.3,2.8 -3.2,2.898001l-0.8,0c-2.4,-0.1 -3.1,-0.6 -3.1,-2.699l0,-5.899l9,0l0,-2.1l-9,0l0,-2.8l-2.7,0l0,2.9l-2.9,0l0,2.1l2.9,0l0,6.599999c0,1 0.3,2.1 1.1,2.800001c0.8,0.799999 2.2,1.199999 4.3,1.199999l1.2,0c2.5,0 3.8,-0.5 4.6,-1.300999c0.7,-0.801001 0.799999,-2.000001 0.799999,-3.199001l0,-1.5l-2.299999,0l0,1l0.099999,0z"/>
  <g id="i">
    <rect y="0" id="svg_9" height="2.2" width="2.7" fill="#187DC1" x="17.9"/>
    <rect id="svg_12" height="12.5" width="2.7" fill="#187DC1" y="4.6" x="17.9"/>
  </g>
  <path id="p" d="m38.700001,12.2c0,2.7 -1.299999,3.1 -4,3.1l-4,0c-2.399,0 -4.10001,-0.399 -4.200001,-3.2l0,-2.3c0,-2 1,-3.3 3.9,-3.3l4.500002,0c3.099998,0.1 3.799999,1 3.799999,3.3l0,2.4l0,0zm0.700001,-6.7c-1.200001,-0.8 -2.800003,-1 -4.400002,-1l-4.299999,0c-1.800001,0 -3.399,0.5 -4.300001,1.6l0,-1.5l-2.5,0l0,16.8l2.700001,0l0,-5.299999c0.60001,0.9 1.799999,1.299999 3.799999,1.299999l4.300001,0c2.299999,0 4,-0.300999 5.200001,-1.199999c1.099998,-0.900001 1.599998,-2.300001 1.599998,-4.300001l0,-2.099999c-0.099998,-2.2 -0.900002,-3.5 -2.099998,-4.3z" fill="#187DC1"/>
 </g>
</svg>
